# xmcd
#
# Track frame offsets:
# 150
# 12103
# 25427
# 43772
# 58953
# 74600
# 89710
# 109245
# 123748
# 133302
# 145837
# 160475
#
# Disc length: 2300 seconds
#
#
# Revision: 0
# Processed by: cddbd v1.5.2PL0 Copyright (c) Steve Scherf et al.
# Submitted via: FreeRIP 2.941 
#
DISCID=c008fa0c
DTITLE=Country Company - Inspiration
DYEAR=1900
DGENRE=Country
TTITLE0=We Should Be Together
TTITLE1=You're My Best Friend
TTITLE2=It Only Rains On Me
TTITLE3=Expert At Everthing
TTITLE4=All I'm Missing Is You
TTITLE5=Gypsy Woman/Some Broken Hearts Never Mend
TTITLE6=I Believe In Love
TTITLE7=I'm Getting Good At Missing You
TTITLE8=Turn Out The Lights Love Me Tonight
TTITLE9=Falling In , Love Again
TTITLE10=Country Boy
TTITLE11=It Must Be Love
EXTD=
EXTT0=
EXTT1=
EXTT2=
EXTT3=
EXTT4=
EXTT5=
EXTT6=
EXTT7=
EXTT8=
EXTT9=
EXTT10=
EXTT11=
PLAYORDER=
